<?xml version="1.0" encoding="UTF-8" standalone="no"?>
<svg
   xmlns:dc="http://purl.org/dc/elements/1.1/"
   xmlns:cc="http://creativecommons.org/ns#"
   xmlns:rdf="http://www.w3.org/1999/02/22-rdf-syntax-ns#"
   xmlns:svg="http://www.w3.org/2000/svg"
   xmlns="http://www.w3.org/2000/svg"
   xmlns:sodipodi="http://sodipodi.sourceforge.net/DTD/sodipodi-0.dtd"
   xmlns:inkscape="http://www.inkscape.org/namespaces/inkscape"
   version="1.1"
   width="573.08142"
   height="539.58453"
   id="svg131"
   viewBox="0 0 573.08142 539.58453"
   sodipodi:docname="apple.cdr.svg"
   inkscape:version="0.92.1 unknown">
  <metadata
     id="metadata137">
    <rdf:RDF>
      <cc:Work
         rdf:about="">
        <dc:format>image/svg+xml</dc:format>
        <dc:type
           rdf:resource="http://purl.org/dc/dcmitype/StillImage" />
        <dc:title></dc:title>
      </cc:Work>
    </rdf:RDF>
  </metadata>
  <defs
     id="defs135" />
  <sodipodi:namedview
     pagecolor="#ffffff"
     bordercolor="#666666"
     borderopacity="1"
     objecttolerance="10"
     gridtolerance="10"
     guidetolerance="10"
     inkscape:pageopacity="0"
     inkscape:pageshadow="2"
     inkscape:window-width="1219"
     inkscape:window-height="1000"
     id="namedview133"
     showgrid="false"
     inkscape:zoom="1.2281893"
     inkscape:cx="299.5856"
     inkscape:cy="217.22399"
     inkscape:window-x="61"
     inkscape:window-y="24"
     inkscape:window-maximized="1"
     inkscape:current-layer="svg131"
     fit-margin-top="0"
     fit-margin-left="0"
     fit-margin-right="0"
     fit-margin-bottom="0" />
  <g
     id="Layer1000"
     transform="translate(1.9478119,-163.7209)">
    <g
       id="Layer1001">
      <g
         id="Layer1002">
        <path
           d="m 410.7098,648.4915 c -1.2557,-2.4843 -2.7686,-4.6502 -4.5448,-6.5537 -1.7773,-1.9032 -3.8202,-3.545 -6.1854,-4.9238 -2.3653,-1.3799 -5.0528,-2.497 -8.1553,-3.2655 -3.1025,-0.7684 -6.6212,-1.1885 -10.133,-1.1817 -4.0967,0.0147 -8.3651,0.4836 -12.8319,1.8331 -0.4385,0.2549 -0.8702,0.5253 -1.1203,0.6954 -0.4745,0.3279 -0.4033,0.3455 -0.5108,0.4977 -0.0348,0.0686 -0.0643,0.1446 -0.0946,0.2472 -0.0919,0.2217 -0.1163,1.2413 -0.1075,2.2255 0.8215,0.4005 1.6319,0.8254 2.1204,1.1027 0.7557,0.4345 0.8007,0.5156 1.0848,0.8047 0.4218,0.5879 0.3515,0.6259 0.4257,1.1299 0.0275,0.3028 0.0352,0.7725 0.0352,1.2402 v 53.7704 c 0.004,0.4717 -0.1982,0.9425 -0.6474,1.3498 -0.3711,0.3572 -0.9139,0.6296 -1.6339,1.0154 -0.4658,0.2452 -1.0154,0.5284 -1.3604,0.7336 -0.6746,0.4099 -0.8348,0.6511 -1.0516,1.0057 -0.3739,0.5148 -0.1114,1.5585 0.5615,1.6575 0.1242,0.0467 0.2792,0.0935 0.4932,0.1442 0.2149,0.0499 0.4882,0.1035 1.1044,0.1426 0.6163,0.0403 1.5764,0.0627 2.5342,0.0627 h 17.7208 c 1.9794,0 3.9608,-0.2109 5.824,-0.635 1.8635,-0.4246 3.6077,-1.0556 5.2552,-1.8924 1.6463,-0.8371 3.1952,-1.8799 4.6494,-3.1572 1.4539,-1.2785 2.8122,-2.7902 4.0563,-4.5819 1.2433,-1.7932 2.3712,-3.8662 3.3353,-6.2757 0.9638,-2.4091 1.7634,-5.1551 2.3173,-8.2596 0.5536,-3.1036 0.8612,-6.5676 0.8396,-10.1007 -0.0224,-3.5331 -0.3719,-7.1367 -1.0476,-10.3407 -0.6758,-3.2032 -1.6759,-6.0061 -2.9328,-8.4904 z m -4.9872,28.8193 c -0.2577,2.4191 -0.6248,4.4053 -1.0509,6.1067 -0.4257,1.7011 -0.909,3.1181 -1.4314,4.3427 -0.5236,1.2245 -1.0852,2.2578 -1.6787,3.1572 -0.5939,0.8986 -1.2189,1.6631 -1.8808,2.3309 -3.545,3.39 -6.7405,3.9277 -10.6331,4.049 -1.1023,0.0136 -2.1719,-0.0499 -2.9746,-0.1437 -0.8025,-0.0947 -1.3397,-0.2205 -1.7929,-0.3603 -1.0625,-0.3486 -1.8417,-0.7169 -2.7168,-1.7705 -0.5819,-0.7509 -0.873,-1.4031 -1.1738,-2.2898 -0.1757,-0.5372 -0.3438,-1.1826 -0.5097,-2.0753 -0.1661,-0.8937 -0.3291,-2.0352 -0.4512,-4.1269 -0.1211,-2.0928 -0.1914,-5.135 -0.1914,-8.176 v -31.7733 c 0,-0.9697 0.0692,-1.9414 0.1953,-2.7773 0.1259,-0.8368 0.3076,-1.5381 0.5205,-2.1464 0.54,-1.3703 0.9394,-2.3811 2.6747,-3.6445 2.3644,-1.4366 4.4385,-1.3967 7.0793,-0.9406 2.5622,0.5516 5.0967,1.8788 7.67,4.6015 0.864,0.923 1.7283,2.0157 2.567,3.3106 0.8391,1.2949 1.6535,2.7918 2.4007,4.498 0.7469,1.705 1.4267,3.6181 1.993,5.7061 0.5664,2.0878 1.0196,4.3495 1.3232,6.7119 0.3036,2.3624 0.459,4.8252 0.4629,7.4823 0.004,2.6572 -0.1434,5.5089 -0.4013,7.9277 z"
           style="fill:#1b1918;fill-rule:evenodd"
           id="path48"
           inkscape:connector-curvature="0" />
        <path
           d="m 41.2668,698.891 c -0.832,-0.4346 -1.1886,-0.7801 -1.7456,-1.4423 -0.9524,-1.2334 -1.3771,-2.467 -1.749,-3.7783 L 24.3289,639.8989 c -0.6055,-1.999 -1.2348,-3.9912 -1.6183,-5.1455 -0.3827,-1.1543 -0.519,-1.4697 -0.6247,-1.7002 -0.2067,-0.5664 -0.7234,-1.1271 -0.9723,-1.0752 -0.3974,-0.0606 -1.745,-0.0558 -2.0245,0.6922 -0.0729,0.1174 -0.1503,0.2656 -0.2492,0.4797 -0.0984,0.2137 -0.2191,0.494 -0.5355,1.6287 -0.3163,1.1348 -0.7993,3.132 -1.3081,5.1203 L 3.5535,692.4487 c -0.4453,1.8192 -0.8303,3.9129 -2.6144,5.7245 -0.199,0.1897 -0.4189,0.3751 -0.7778,0.584 -0.3589,0.2092 -0.8569,0.4405 -1.1721,0.6142 -0.9068,0.544 -0.7623,0.7472 -0.8927,1.1211 -0.1406,0.4337 0.0304,1.5225 0.8467,1.5928 0.292,0.1083 1.2348,0.1398 2.166,0.1398 H 9.053 c 0.8028,0 1.607,-0.0128 2.1121,-0.0411 1.0582,-0.0859 1.2101,-0.1259 1.7249,-0.4933 0.7197,-0.6913 0.5286,-2.2527 -0.4391,-2.5976 -0.2061,-0.1123 -0.5006,-0.2469 -0.9771,-0.4354 -0.4765,-0.1885 -1.1347,-0.4317 -1.5591,-0.6203 C 9.0544,697.6256 8.915,697.477 8.43,696.9107 7.9401,696.2318 7.8395,695.5911 7.8304,694.893 l 3.6664,-15.8876 h 14.6661 l 3.0552,8.5546 c 1.0741,2.2266 1.8567,5.4102 1.8085,8.3946 -0.0473,0.7205 -0.5326,1.62 -1.3068,2.0525 -0.2267,0.2197 -1.4349,0.6046 -2.4797,0.9238 -0.7696,0.2571 -1.1101,0.3467 -1.6036,0.6905 -0.773,0.6359 -0.9326,1.3544 -0.4416,2.0314 0.2803,0.2568 0.4754,0.3018 0.7858,0.3945 0.373,0.1307 1.5063,0.1778 2.626,0.1778 h 9.1655 c 1.1441,0 2.2896,-0.0128 2.9928,-0.0491 1.0857,-0.0615 1.1951,-0.1298 1.6274,-0.2684 0.7095,-0.1837 1.2799,-1.3388 0.5678,-2.2107 -0.0819,-0.131 -0.961,-0.4621 -1.6934,-0.8059 z m -28.0922,-24.7459 3.0552,-13.4436 c 0.2534,-1.114 0.5777,-2.2127 0.8081,-2.9716 0.2305,-0.758 0.3892,-1.1718 0.523,-1.4873 0.2906,-0.6554 0.5528,-1.2178 1.1259,-1.5225 0.3858,-0.1874 1.2864,-0.2764 1.601,0.3798 0.0494,0.0842 0.1001,0.1885 0.1676,0.3467 0.0674,0.1585 0.1513,0.3694 0.3705,1.2529 0.2194,0.8839 0.5499,2.4463 0.9034,4.002 l 3.0551,13.4436 z"
           style="fill:#1b1918;fill-rule:evenodd"
           id="path50"
           inkscape:connector-curvature="0" />
        <path
           d="m 149.4193,699.1526 c -0.1369,-0.1562 -1.2062,-0.5428 -2.1291,-0.9003 -0.9082,-0.379 -1.3343,-0.7081 -1.7073,-1.3036 -0.2764,-0.4865 -0.3459,-0.9414 -0.3504,-1.4454 V 671.061 c 0,-2.0342 -0.1361,-4.0714 -0.3535,-5.6954 -0.2165,-1.624 -0.5179,-2.8349 -0.849,-3.8526 -0.3316,-1.0184 -0.6925,-1.8447 -1.0785,-2.5557 -0.3858,-0.7106 -0.796,-1.3065 -1.2311,-1.83 -2.3168,-2.6581 -4.5502,-3.2352 -6.8661,-3.6162 -0.7722,-0.1054 -1.6135,-0.1542 -2.2686,-0.1661 -1.826,-0.0156 -2.9732,0.1848 -4.4433,0.6046 -0.4892,0.1486 -0.9898,0.3311 -1.5366,0.5596 -0.5468,0.2276 -1.1401,0.5 -1.9914,1.0429 -0.8509,0.5439 -1.9598,1.3575 -2.6662,1.8399 -1.1452,0.7685 -1.3258,0.8028 -1.7691,0.838 -0.588,0.0771 -1.2243,-0.6027 -1.3522,-1.0452 -0.0663,-0.161 -0.1315,-0.3571 -0.2001,-0.6259 -0.0689,-0.2676 -0.1423,-0.6074 -0.1964,-1.3592 -0.0547,-0.7529 -0.0845,-1.9171 -0.0845,-3.0801 v -19.5528 c 0,-1.1435 -0.0128,-2.289 -0.0488,-2.9923 -0.0612,-1.0859 -0.1298,-1.1951 -0.2676,-1.6276 -0.1539,-0.5792 -0.8954,-0.9289 -1.5171,-0.8791 -0.4056,9e-4 -0.8101,0.0536 -1.3475,0.1914 -0.5381,0.1377 -1.209,0.3614 -2.0773,0.7568 -1.7881,0.7892 -4.4813,2.4923 -6.9633,4.5508 0.7271,0.4269 1.4253,0.9073 1.9077,1.298 1.5341,1.3504 1.6144,2.0253 1.9605,3.0778 0.2846,1.0032 0.4096,2.5812 0.409,4.178 -0.007,18.25 0.0247,36.4873 -0.0218,54.7509 -0.0714,0.6094 -0.3606,1.2118 -0.9547,1.7362 -0.1483,0.1369 -0.3291,0.2892 -0.7234,0.5304 -0.3949,0.2421 -1.0032,0.5723 -1.3927,0.8047 -0.5768,0.3555 -0.6769,0.4374 -0.9487,0.7626 -0.3955,0.6358 -0.3235,1.1194 0.0569,1.8252 0.362,0.4201 0.6285,0.4425 0.9947,0.5451 0.1656,0.0388 0.3722,0.0791 0.8776,0.1083 0.5052,0.0283 1.3091,0.0411 2.1121,0.0411 h 10.999 c 0.5695,-0.0168 1.5021,-0.0751 1.7745,-1.2345 0.0899,-0.5372 0.1973,-1.2929 -0.6421,-1.838 -0.1372,-0.1562 -1.2064,-0.5428 -2.1288,-0.9003 -0.9088,-0.379 -1.3345,-0.7081 -1.7076,-1.3036 -0.2769,-0.4865 -0.3458,-0.9414 -0.3506,-1.4454 v -23.8312 c 0,-1.2529 0.127,-2.5058 0.3708,-3.6992 0.2435,-1.1922 0.6043,-2.325 1.0482,-3.3446 0.4439,-1.0193 0.9703,-1.9267 1.5429,-2.7091 3.1232,-4.0096 6.2462,-4.5986 9.9113,-4.1717 1.668,0.3027 3.1737,0.7138 4.6795,2.6016 0.2693,0.3563 0.5182,0.7577 0.748,1.2266 0.2297,0.4697 0.44,1.0086 0.6245,1.6503 0.4201,1.4063 0.629,3.3993 0.6282,5.3915 -0.009,8.9501 0.0306,17.8605 -0.0281,26.8526 -0.049,0.8739 -0.5726,1.9874 -1.3901,2.4951 -0.1794,0.1301 -0.3974,0.2715 -0.8498,0.466 -0.453,0.1933 -1.1398,0.4402 -1.5857,0.623 -0.6886,0.2889 -0.8436,0.3994 -1.1699,0.7002 -0.5238,0.6267 -0.8733,1.5401 0.0553,2.1492 0.2319,0.1075 0.3886,0.1398 0.6718,0.1933 0.1811,0.0324 0.415,0.0675 1.0381,0.093 0.623,0.0252 1.6361,0.0352 2.6481,0.0352 h 7.3324 c 1.0919,0 2.186,-0.0176 2.8715,-0.0587 1.0683,-0.0703 1.2296,-0.1534 1.6914,-0.3135 1.2115,-0.6095 1.192,-1.6112 0.5406,-2.452 -0.0777,-0.0782 -0.173,-0.1573 -0.3056,-0.2483 z"
           style="fill:#1b1918;fill-rule:evenodd"
           id="path52"
           inkscape:connector-curvature="0" />
        <path
           d="m 82.1492,696.225 c -0.3272,-0.1953 -0.832,-0.4717 -1.1852,-0.7129 -1.3442,-1.0664 -1.6016,-1.8692 -1.9993,-2.8046 -0.7602,-2.1144 -0.8903,-4.2069 -0.9079,-6.5118 v -32.9961 h -8.555 c -0.9541,0 -1.9102,0.0116 -2.5035,0.0419 -1.1138,0.0715 -1.2096,0.1231 -1.7255,0.3575 -0.8433,0.5947 -0.8101,1.419 -0.4473,2.2694 0.2197,0.345 0.5015,0.5236 0.8677,0.6817 0.2095,0.0879 0.498,0.1846 0.9927,0.3144 0.4941,0.129 1.1942,0.2911 1.6472,0.4241 0.9193,0.2968 1.0862,0.4422 1.5874,0.8963 0.7223,0.8019 0.779,1.5185 0.8039,2.3476 v 29.3293 c -0.0329,1.6319 -0.4073,3.285 -2.1146,5.0332 -1.781,1.705 -3.8639,2.2889 -5.8811,2.2997 -0.788,0.003 -1.6293,-0.0811 -2.3539,-0.2313 -1.6786,-0.419 -2.9287,-0.8223 -4.4183,-2.8457 -0.3342,-0.4924 -0.6296,-1.0568 -0.8839,-1.7306 -0.5748,-1.4697 -0.8487,-3.5294 -0.8467,-5.58 v -33.6075 h -8.5552 c -0.9542,0 -1.9103,0.0116 -2.5036,0.0419 -1.1137,0.0715 -1.2092,0.1231 -1.7254,0.3575 -0.8394,0.6015 -0.832,1.4122 -0.4258,2.2833 0.6061,0.6239 0.5777,0.4833 1.2217,0.6973 0.4159,0.1063 1.0775,0.2342 1.5537,0.3515 1.08,0.2872 1.5868,0.4921 2.253,1.2305 0.7727,1.0177 0.8203,1.916 0.849,2.9824 v 26.8846 c 0,1.5568 0.0978,3.1153 0.2715,4.4101 0.1738,1.296 0.421,2.3293 0.709,3.2111 0.2874,0.8808 0.6156,1.6124 0.9793,2.2479 0.364,0.6369 0.7634,1.1789 1.2053,1.6583 0.4422,0.4796 0.9272,0.8966 1.4721,1.2656 0.5451,0.3683 1.1505,0.6886 1.8555,0.963 1.9721,0.8076 5.4085,1.1718 8.35,0.7061 1.7037,-0.2824 3.1788,-0.8008 4.7418,-1.7014 1.5537,-0.864 3.5331,-2.5534 5.4692,-4.8163 0.1755,1.669 0.3878,3.3369 0.5394,4.3242 0.2398,1.5177 0.3215,1.5429 0.5344,2.0801 0.3356,0.7316 0.8934,0.9374 1.3699,0.9278 0.2126,-0.0117 0.421,-0.0547 0.8711,-0.2177 0.8062,-0.2756 2.6819,-1.1515 4.2188,-2.1447 0.688,-0.4383 1.2135,-0.828 1.6217,-1.1619 1.251,-1.0304 2.0226,-2.0186 1.7972,-2.8633 -0.1349,-0.3223 -0.2639,-0.3878 -0.7503,-0.6925 z"
           style="fill:#1b1918;fill-rule:evenodd"
           id="path54"
           inkscape:connector-curvature="0" />
        <path
           d="m 342.1729,694.7895 c -1.7422,-0.8487 -2.0585,-2.2178 -2.338,-3.3018 -0.2305,-1.0732 -0.2959,-2.1092 -0.3008,-3.3202 v -56.8273 c 0,-1.0409 -0.01,-2.084 -0.0391,-2.7147 -0.0691,-1.1515 -0.1094,-1.1787 -0.3399,-1.6583 -0.5204,-0.6075 -0.7577,-0.4581 -1.415,-0.5148 -0.5596,0.0275 -0.7549,0.1194 -1.372,0.3467 -0.7988,0.3019 -2.3644,1.1223 -3.7695,2.0333 -0.7265,0.4708 -1.3799,0.9434 -1.8592,1.3204 -0.7209,0.5751 -1.0919,0.9238 -1.4066,1.3535 -0.326,0.4737 -0.1618,0.6347 -0.0536,0.9363 0.009,0.1721 0.8088,1.0619 1.4962,1.8332 0.9706,1.0871 1.4247,1.836 1.4266,2.5645 v 16.4979 c -1.5712,-0.6865 -3.1699,-1.3173 -4.2675,-1.7011 -1.9783,-0.6825 -2.5948,-0.7041 -3.6768,-0.7432 -3.1972,0.0283 -6.3301,1.1582 -9.5137,4.3018 -0.8144,0.8164 -1.6307,1.7822 -2.4239,2.922 -0.7928,1.1395 -1.5613,2.454 -2.2666,3.9365 -0.7041,1.4833 -1.3427,3.1345 -1.8708,4.907 -1.0939,3.672 -1.6467,7.5957 -1.6447,11.4775 -0.002,2.0061 0.133,4.0606 0.3858,5.9601 0.2529,1.8995 0.6219,3.6437 1.0673,5.207 0.4453,1.5636 0.9669,2.9463 1.5312,4.1593 0.5647,1.2138 1.1719,2.2586 1.8009,3.1632 3.4903,4.8143 6.9335,5.8084 10.4902,5.9042 1.9669,-0.003 4.0371,-0.5051 6.0049,-1.675 1.9366,-1.1063 3.384,-2.8953 4.994,-4.4353 0.0939,0.6658 0.216,1.3289 0.3467,1.9051 0.1301,0.5763 0.2707,1.0653 0.4122,1.4834 0.3115,0.8427 0.5156,1.463 1.2373,2.2334 0.9198,0.7608 1.1222,0.4502 1.9698,0.4306 2.0265,-0.2333 4.4345,-1.5389 6.1727,-4.0898 0.7776,-1.2206 1.1682,-2.1084 0.5491,-3.0575 -0.1026,-0.2344 -0.7588,-0.542 -1.3272,-0.8379 z m -9.9502,-4.8243 c 0,0.7549 -0.051,1.5098 -0.1417,2.1476 -0.3039,1.5936 -0.4932,2.8955 -2.3037,4.2567 -1.7606,1.1163 -4.0252,1.1447 -6.2977,0.584 -1.5353,-0.4298 -2.9376,-1.1962 -4.3203,-2.666 -0.627,-0.6758 -1.2161,-1.4794 -1.7581,-2.454 -0.542,-0.9756 -1.0389,-2.1203 -1.4686,-3.4971 -0.4297,-1.377 -0.7929,-2.9846 -1.0412,-4.8906 -0.2477,-1.9054 -0.3807,-4.1085 -0.3894,-6.3107 -0.01,-2.2011 0.1046,-4.4003 0.3035,-6.3261 0.1993,-1.9267 0.4836,-3.579 0.8127,-5.0009 0.3291,-1.4219 0.703,-2.6133 1.0976,-3.6281 0.3946,-1.0145 0.8085,-1.8535 1.2334,-2.5673 0.4249,-0.7149 0.8594,-1.3056 1.2968,-1.8017 2.4942,-2.6728 4.5714,-2.8613 7.2958,-2.5705 1.4366,0.2376 2.7315,0.5519 4.0207,2.0401 0.5675,0.7073 0.8691,1.3672 1.1338,2.1943 0.3524,1.0792 0.5273,2.6448 0.5264,4.2149 z"
           style="fill:#1b1918;fill-rule:evenodd"
           id="path56"
           inkscape:connector-curvature="0" />
        <path
           d="m 488.9081,694.1557 c -0.0936,-0.0108 -0.2041,-0.0156 -0.9159,-0.0224 -0.7109,-0.006 -2.0225,-0.0139 -2.8137,-0.0371 -1.2138,-0.0392 -1.2909,-0.0939 -1.7526,-0.2002 -0.9913,-0.2939 -0.9122,-0.9453 -0.9445,-1.5899 v -29.9404 c 0,-1.1327 -0.0584,-2.2657 -0.1642,-3.2043 -0.1043,-0.9374 -0.2528,-1.6806 -0.4246,-2.3133 -0.4249,-1.4307 -0.7912,-2.4503 -2.0801,-3.6973 -2.0117,-1.6602 -3.7666,-1.7353 -5.9541,-1.7824 -0.7988,0.0119 -1.666,0.091 -2.6847,0.2835 -2.043,0.373 -4.7637,1.2869 -7.2927,2.5789 -1.2697,0.6446 -2.4786,1.3683 -3.5402,2.0977 -1.0616,0.7285 -1.9758,1.4629 -2.7491,2.1699 -2.9111,2.6904 -4.3897,5.3351 -4.4404,8.087 0.0431,1.0479 0.1562,2.0097 1.4561,3.0634 1.8153,1.0967 4.0859,1.0519 6.0234,-1.1416 0.248,-0.2979 0.5096,-0.6601 0.8175,-1.2061 0.3084,-0.546 0.6639,-1.2733 1.169,-2.6308 0.5057,-1.3573 1.163,-3.3446 1.6611,-4.6163 0.4989,-1.2724 0.8396,-1.828 1.1367,-2.2685 0.4989,-0.7257 0.8748,-1.1923 1.5381,-1.7039 0.8144,-0.6103 1.5888,-0.8654 2.3924,-0.9853 0.4913,-0.0851 1.4718,-0.0851 2.4015,0.0136 0.9482,0.1454 1.4686,0.2508 2.1093,1.0301 0.6622,1.0372 0.6454,1.9034 0.6817,3.17 v 12.831 c -3.1073,1.2169 -6.0948,2.747 -8.752,4.46 -2.6572,1.7138 -4.9844,3.6102 -6.8768,5.5987 -3.6252,3.8594 -5.6526,7.74 -5.758,11.329 -0.003,1.1046 0.1525,2.2099 0.4521,3.2383 0.2999,1.0272 0.7444,1.9774 1.2969,2.8037 2.0412,2.9112 4.4835,3.6953 6.8428,3.7335 1.8088,-0.003 3.4823,-0.4581 5.0975,-1.3986 2.3304,-1.2098 5.51,-4.3027 8.3087,-7.1552 0.1904,1.1347 0.462,2.2589 0.7296,3.081 0.2676,0.8223 0.5312,1.3439 0.79,1.7776 0.4414,0.7254 0.8643,1.2673 1.5928,1.8317 1.0108,0.7501 1.9502,1.0216 2.9707,1.1722 1.5537,0.2128 2.1336,-0.0108 3.3222,-0.5236 0.832,-0.3858 1.8624,-1.0001 2.7658,-1.7717 1.8045,-1.4969 2.5585,-3.2539 2.4959,-4.411 10e-4,-0.2568 -0.009,-0.5791 -0.0264,-0.786 -0.007,-0.6542 -0.4921,-0.9553 -0.8818,-0.9649 z m -14.2773,-2.9687 c -1.4119,1.4198 -2.9112,2.7606 -4.045,3.6513 -1.1347,0.8917 -1.9061,1.332 -2.5674,1.6494 -2.1571,0.9394 -3.6776,1.3145 -5.7342,-0.0371 -1.3915,-1.1835 -1.6466,-2.465 -1.707,-4.0048 0.005,-1.2756 0.3056,-2.3037 0.8631,-3.6476 0.6319,-1.4922 1.8173,-3.4404 3.3849,-5.2393 2.8505,-3.3026 6.7031,-5.8436 9.8056,-5.8152 z"
           style="fill:#1b1918;fill-rule:evenodd"
           id="path58"
           inkscape:connector-curvature="0" />
        <path
           d="m 184.163,660.7474 c -1.2033,-2.1172 -2.6306,-3.8798 -4.1854,-5.2744 -5.828,-4.9629 -12.2644,-5.5333 -18.7668,-1.5146 -1.3337,0.8895 -2.6138,2.0245 -3.7936,3.4268 -1.1798,1.4032 -2.2592,3.0734 -3.1668,4.9989 -0.908,1.9267 -1.6441,4.1086 -2.1442,6.4902 -0.4994,2.382 -0.7631,4.9629 -0.756,7.7015 0.008,2.738 0.2866,5.6336 0.8164,8.2584 0.5304,2.6261 1.3116,4.9828 2.2584,7.0325 0.9467,2.0497 2.0596,3.7939 3.2672,5.2481 3.9824,4.6718 8.1952,6.116 12.5697,6.1894 2.8077,-0.01 5.6332,-0.7599 8.3639,-2.6906 1.2849,-0.9131 2.5058,-2.0693 3.6255,-3.498 1.1199,-1.4286 2.1387,-3.1289 2.9985,-5.1123 0.8597,-1.9845 1.561,-4.2528 2.0454,-6.7957 0.4842,-2.5433 0.7521,-5.3623 0.72,-8.3078 -0.0311,-2.9452 -0.3611,-6.0177 -1.0153,-8.79 -0.6548,-2.7725 -1.6339,-5.2441 -2.8369,-7.3624 z m -4.4227,23.9238 c -0.1814,1.8828 -0.4427,3.4592 -0.7449,4.8068 -0.3022,1.3487 -0.6452,2.4686 -1.0114,3.4287 -0.3657,0.959 -0.7543,1.7567 -1.1557,2.4395 -0.4017,0.6826 -0.8164,1.2498 -1.2421,1.7343 -2.6011,2.7558 -4.9493,3.0294 -7.7553,2.4834 -1.626,-0.4521 -3.1652,-1.3663 -4.7356,-3.7287 -0.4839,-0.7429 -0.9536,-1.6288 -1.3963,-2.7127 -0.4434,-1.084 -0.8604,-2.3673 -1.2246,-3.9161 -0.3643,-1.5489 -0.6764,-3.3642 -0.8873,-5.5137 -0.2103,-2.1495 -0.3203,-4.6326 -0.3347,-6.5605 -0.0148,-1.9275 0.0652,-3.2978 0.2185,-4.6757 0.154,-1.3771 0.3816,-2.7618 0.6778,-4.093 0.2959,-1.33 0.661,-2.6061 1.0672,-3.7723 0.4068,-1.1651 0.8555,-2.2195 1.3147,-3.1405 0.459,-0.9218 0.9287,-1.709 1.3902,-2.3772 0.4609,-0.6686 0.913,-1.2166 1.345,-1.6687 1.1682,-1.213 2.2813,-1.8527 3.3911,-2.1076 1.8283,-0.3554 4.3741,0.1426 6.5542,2.8525 0.4556,0.5627 0.9103,1.2325 1.3544,2.043 0.4445,0.8107 0.8776,1.762 1.2833,2.8896 0.4053,1.1279 0.7832,2.4318 1.1075,3.9416 0.3248,1.5097 0.5961,3.2247 0.7823,5.157 0.186,1.9319 0.2866,4.0791 0.2861,6.2482 -6e-4,2.169 -0.1027,4.3594 -0.2844,6.2421 z"
           style="fill:#1b1918;fill-rule:evenodd"
           id="path60"
           inkscape:connector-curvature="0" />
        <path
           d="m 538.0574,659.8304 c -0.3308,-1.0488 -0.6914,-1.8935 -1.0752,-2.6201 -0.3838,-0.7256 -0.792,-1.332 -1.2245,-1.8632 -3.1317,-3.5274 -6.0058,-3.7088 -9.328,-3.8418 -3.3557,0.034 -6.7226,1.2206 -10.209,4.5556 -1.127,1.0978 -2.2218,2.4211 -3.2179,3.9591 -0.9969,1.5381 -1.8955,3.2899 -2.6328,5.1934 -1.5097,3.8917 -2.2841,8.2879 -2.2722,12.5663 -0.0159,3.1552 0.3415,6.3192 0.9978,9.0858 0.6565,2.7667 1.6103,5.1367 2.7666,7.138 1.1562,2.0018 2.5137,3.6345 4.0195,4.9362 3.8458,3.2766 8.2483,4.3401 12.9336,3.7219 2.5441,-0.4093 4.9485,-1.3428 7.2667,-4.0391 0.5351,-0.629 1.0695,-1.3683 1.6131,-2.3088 0.5432,-0.9403 1.0968,-2.0829 1.5676,-3.2576 l -1.2229,-1.834 -1.8328,1.2226 c -1.0976,1.1222 -2.2714,2.1767 -3.1612,2.8684 -1.8672,1.4071 -2.5994,1.5398 -3.8583,1.8368 -2.7022,0.415 -6.3516,0.3407 -9.3518,-2.4738 -0.4773,-0.4541 -0.9354,-0.9825 -1.3767,-1.6092 -0.4405,-0.627 -0.8635,-1.3535 -1.2657,-2.2365 -0.4022,-0.8827 -0.7841,-1.9216 -1.1319,-3.208 -0.3467,-1.2861 -0.659,-2.8193 -0.8827,-4.8064 -0.2225,-1.9874 -0.3574,-4.4297 -0.3586,-6.8692 h 24.4426 v -6.1104 c 0,-2.1495 -0.1366,-4.3018 -0.3546,-6.0041 -0.2177,-1.7022 -0.5193,-2.9539 -0.8507,-4.0019 z m -5.4003,10.8536 c -0.1505,0.0643 -0.3311,0.1241 -0.5771,0.1856 -0.246,0.0615 -0.5576,0.127 -1.3935,0.1738 -0.8359,0.0468 -2.1954,0.0643 -3.5527,0.0643 h -11.6104 c 0.1006,-1.294 0.2823,-2.5809 0.5332,-3.7899 0.25,-1.2101 0.5695,-2.342 0.9258,-3.3565 0.3574,-1.0145 0.7529,-1.9119 1.1602,-2.6903 0.4071,-0.7776 0.826,-1.4358 1.243,-1.997 2.8528,-3.6644 5.5899,-3.9756 8.46,-2.9288 0.8291,0.3427 1.6299,0.8575 2.3596,1.542 0.7285,0.6846 1.3847,1.537 1.9304,2.5419 1.1721,2.1367 1.7365,4.915 1.7189,7.6229 -0.0284,0.9026 0.005,2.1251 -1.1974,2.632 z"
           style="fill:#1b1918;fill-rule:evenodd"
           id="path62"
           inkscape:connector-curvature="0" />
        <path
           d="m 447.0653,659.8304 c -0.3308,-1.0488 -0.6914,-1.8935 -1.0752,-2.6201 -0.3835,-0.7256 -0.792,-1.332 -1.2246,-1.8632 -3.1317,-3.5274 -6.0057,-3.7088 -9.3291,-3.8418 -3.3876,0.0312 -6.7861,1.1064 -10.243,4.3299 -1.0938,1.0372 -2.1543,2.2902 -3.13,3.7698 -0.9757,1.4803 -1.8671,3.1884 -2.6112,5.0916 -0.7441,1.9024 -1.34,3.9991 -1.751,6.213 -0.4113,2.2127 -0.6378,4.5428 -0.5899,7.2882 0.0479,2.745 0.3711,5.9042 1.0097,8.6697 0.6378,2.7647 1.5928,5.1347 2.7479,7.136 1.1565,2.0018 2.5149,3.6345 4.0207,4.9362 3.8457,3.2766 8.2479,4.3401 12.9336,3.7219 2.543,-0.4093 4.9482,-1.3428 7.2666,-4.0391 0.5341,-0.6298 1.0684,-1.3683 1.6124,-2.3088 0.5439,-0.9403 1.0975,-2.0829 1.5672,-3.2576 l -1.2225,-1.834 -1.8321,1.2226 c -1.0987,1.1222 -2.2725,2.1767 -3.1612,2.8684 -1.868,1.4071 -2.5996,1.5398 -3.8593,1.8368 -2.7423,0.4286 -6.2382,0.2988 -9.1837,-2.4454 -0.4825,-0.457 -0.9491,-0.9873 -1.4023,-1.624 -0.453,-0.6367 -0.8926,-1.3799 -1.3105,-2.2793 -0.4189,-0.8995 -0.8155,-1.9571 -1.1766,-3.2607 -0.3626,-1.3048 -0.6877,-2.8545 -0.9202,-4.8283 -0.2321,-1.9746 -0.3699,-4.371 -0.3739,-6.7654 h 24.4423 v -6.1104 c 0,-2.1495 -0.1357,-4.3018 -0.3534,-6.0041 -0.2177,-1.7022 -0.5196,-2.9539 -0.8507,-4.0019 z m -5.3759,10.4766 c -0.4502,0.2803 -0.7872,0.3809 -1.332,0.5088 -0.3427,0.0771 -0.7744,0.1505 -1.5029,0.2052 -0.7297,0.0536 -1.7538,0.0867 -2.7774,0.0867 h -12.2216 c 0.2069,-1.4434 0.4941,-2.876 0.828,-4.1629 0.3339,-1.2861 0.7149,-2.4268 1.1143,-3.422 0.3994,-0.9961 0.8164,-1.8468 1.2345,-2.577 0.4178,-0.7305 0.8368,-1.3408 1.2518,-1.8623 2.8788,-3.4572 5.6063,-3.7744 8.4835,-2.7522 0.828,0.3351 1.6376,0.8399 2.3749,1.5089 0.7364,0.669 1.4006,1.5021 1.9482,2.4707 1.1631,2.0401 1.7238,4.621 1.707,7.13 -0.0555,1.0037 0.0647,2.0125 -1.1083,2.8661 z"
           style="fill:#1b1918;fill-rule:evenodd"
           id="path64"
           inkscape:connector-curvature="0" />
        <path
           d="m 302.2841,660.3335 c -0.3388,-1.093 -0.7158,-1.9961 -1.1172,-2.7725 -0.4002,-0.7764 -0.8251,-1.4267 -1.2744,-1.997 -3.0904,-3.6357 -5.9919,-3.9376 -9.2466,-4.0587 -3.3781,0.0272 -6.7678,1.1075 -10.2181,4.2752 -1.0978,1.0256 -2.1654,2.2658 -3.1473,3.7279 -0.9819,1.4618 -1.8782,3.1473 -2.6246,5.0125 -1.5287,3.7723 -2.3213,8.2831 -2.3411,12.5969 -0.0182,2.1815 0.1392,4.3143 0.4192,6.279 0.2804,1.965 0.6843,3.7618 1.1716,5.375 0.4873,1.6132 1.0584,3.043 1.6815,4.3047 0.623,1.2629 1.298,2.3576 2.0021,3.3126 3.1878,4.2137 6.4417,5.586 9.6386,6.2022 3.043,0.5125 5.1084,0.1718 7.7811,-0.7979 0.9338,-0.3527 1.8664,-0.7901 2.6992,-1.2578 0.8328,-0.4688 1.5661,-0.9657 2.1855,-1.4533 2.5078,-1.9814 3.5799,-4.0799 3.585,-6.0174 0.008,-0.3311 -0.006,-0.6542 -0.0247,-0.8603 -0.0136,-0.8195 -0.6678,-1.0032 -1.1982,-0.9825 -0.0935,-0.004 -0.1854,0.0196 -0.3651,0.1287 -0.1797,0.1094 -0.4473,0.3059 -1.1143,0.8966 -0.6658,0.591 -1.7322,1.5763 -2.5361,2.2314 -1.4412,1.1583 -2.1989,1.4602 -3.1578,1.9171 -3.547,1.3887 -7.0509,1.6231 -10.5098,-1.5145 -0.4736,-0.4542 -0.9433,-0.9913 -1.4102,-1.6467 -0.4669,-0.6551 -0.9303,-1.4295 -1.3825,-2.3817 -0.4521,-0.9521 -0.8929,-2.0831 -1.2968,-3.4718 -0.4037,-1.3876 -0.7699,-3.0331 -1.0281,-4.9814 -0.2586,-1.9491 -0.4088,-4.2012 -0.4193,-6.453 h 24.4429 v -6.1104 c 0,-1.9474 -0.1301,-3.8965 -0.343,-5.5128 -0.2137,-1.6152 -0.5136,-2.8976 -0.8515,-3.9901 z m -5.4783,10.3505 c -0.1502,0.0643 -0.3311,0.1241 -0.5771,0.1856 -0.2461,0.0615 -0.5576,0.127 -1.3935,0.1738 -0.836,0.0468 -2.1952,0.0643 -3.5527,0.0643 h -11.611 c 0.1208,-1.5145 0.3325,-3.0234 0.6047,-4.3514 0.2718,-1.328 0.6035,-2.4766 0.9575,-3.4659 0.3543,-0.9882 0.7305,-1.8185 1.1143,-2.5283 0.3838,-0.71 0.7747,-1.2996 1.1619,-1.798 2.8576,-3.4265 5.544,-3.6357 8.4835,-2.6189 0.83,0.3427 1.6308,0.8575 2.3605,1.542 0.7285,0.6846 1.3847,1.537 1.9306,2.5419 1.1719,2.1367 1.736,4.915 1.7184,7.6229 -0.0283,0.9026 0.005,2.1251 -1.1971,2.632 z"
           style="fill:#1b1918;fill-rule:evenodd"
           id="path66"
           inkscape:connector-curvature="0" />
        <path
           d="m 271.6302,692.483 c -0.0411,-1.2541 -0.0984,-1.6563 -0.1505,-1.9602 -0.144,-0.7098 -0.2013,-1.2781 -0.8643,-1.6172 -0.4482,-0.1454 -1.309,-0.3554 -1.8437,0.5364 -0.1363,0.2177 -0.2939,0.536 -0.5465,1.2302 -0.252,0.6945 -0.5984,1.7629 -0.8997,2.501 -0.521,1.2472 -0.9255,1.705 -1.523,2.4151 -2.9878,2.8905 -5.7008,2.8398 -8.7832,2.9699 h -7.9438 l 18.9428,-36.0499 c 1.1611,-1.7549 2.2802,-3.5442 2.8749,-4.5627 0.5953,-1.0176 0.6656,-1.2653 0.714,-1.4969 0.1551,-0.7297 0.1582,-1.9415 -0.7353,-2.458 -0.3775,-0.2236 -0.6301,-0.2863 -1.087,-0.3945 -0.2915,-0.0655 -0.6685,-0.135 -1.6903,-0.1857 -1.0219,-0.0508 -2.689,-0.0811 -4.3541,-0.0683 l -18.9428,-1.2226 c -0.7622,-0.1279 -1.6914,0.6415 -1.8224,1.2753 -0.2103,0.582 -0.2885,1.0196 -0.39,1.7589 -0.1446,0.9374 -0.2296,3.2579 -0.233,5.3807 -0.003,1.1427 0.0181,2.1464 0.0519,2.7734 0.0776,1.1435 0.1312,1.2637 0.3781,1.7921 0.6052,0.8691 1.7629,0.4776 2.6062,-0.0751 0.1604,-0.123 0.3163,-0.2724 0.4926,-0.5156 0.1766,-0.2444 0.3739,-0.5811 0.6523,-1.2374 0.2778,-0.6553 0.6372,-1.629 0.9473,-2.2929 0.5366,-1.1211 0.9374,-1.4981 1.5548,-2.1096 3.0892,-2.4451 5.8944,-2.3533 9.2055,-2.4726 l 4.8892,0.6114 -20.1656,36.6622 c -0.6993,1.1287 -1.3408,2.2986 -1.7241,3.1062 -0.7149,1.5284 -0.6729,2.0492 -0.7197,3.0042 -0.1338,0.8379 0.7455,2.0401 1.6084,2.1651 0.2197,0.072 0.4893,0.1442 1.0448,0.1981 0.5554,0.0527 1.3961,0.0811 2.2349,0.0811 h 19.5542 c 1.1225,0 2.2468,-0.0284 3.0166,-0.0763 0.7697,-0.0468 1.1846,-0.1102 1.5089,-0.1749 0.8153,-0.1686 1.6489,-0.4246 1.9727,-1.3524 0.1797,-0.3691 0.2372,-1.5264 0.2236,-2.6739 0.0122,-2.1045 -0.0133,-4.2097 -0.0547,-5.4646 z"
           style="fill:#1b1918;fill-rule:evenodd"
           id="path68"
           inkscape:connector-curvature="0" />
        <path
           d="m 570.202,654.6067 c -0.286,-0.5176 -0.6307,-0.9765 -1.0137,-1.3671 -2.3493,-2.2451 -5.0108,-2.0574 -7.5254,-1.0038 -0.5712,0.2597 -1.1659,0.5995 -1.8289,1.0752 -0.663,0.4756 -1.3955,1.0879 -2.2921,2.0214 -0.8966,0.9346 -1.9579,2.1914 -2.9395,3.505 0.003,-1.1202 -0.038,-2.2433 -0.0995,-2.9866 -0.1015,-1.1551 -0.2188,-1.4745 -0.4365,-2.0681 -0.1406,-0.6398 -1.1855,-1.2861 -1.6113,-0.9981 -0.1417,0.042 -0.3398,0.1123 -0.6885,0.2803 -0.669,0.298 -2.4327,1.3808 -3.9659,2.5011 -0.7869,0.5731 -1.4443,1.1063 -1.8876,1.4921 -0.7002,0.6199 -0.923,0.8768 -1.0868,1.1679 0.0983,1.036 -0.2668,2.3663 0.8923,3.2834 0.0862,0.1598 1.798,-0.095 1.8632,0.8523 0.2716,0.7988 0.2872,1.584 0.2991,2.5861 v 30.5526 c -0.042,1.0633 -0.0655,2.0841 -1.086,3.1465 -0.9317,0.6151 -2.1268,1.5673 -3.1915,2.3525 0.4992,0.5292 0.9825,0.9229 1.3467,1.0156 0.1718,0.0607 0.3683,0.1202 0.963,0.161 0.5947,0.0411 1.5888,0.0627 2.5789,0.0451 l 10.3879,0.6114 c 0.5692,-0.0167 1.5018,-0.0754 1.7745,-1.2345 0.0975,-0.4325 0.0915,-1.0116 -0.2727,-1.3895 -0.1307,-0.2755 -1.2558,-1.0188 -2.2255,-1.677 -0.5732,-0.3926 -1.0673,-0.7461 -1.4071,-1.0193 -0.9454,-0.79 -1.2249,-1.3008 -1.4278,-1.9015 -0.0732,-0.2429 -0.1066,-0.4813 -0.1075,-0.7217 v -19.5537 c 0,-1.3339 0.0615,-2.6671 0.1778,-3.9237 0.115,-1.256 0.2851,-2.4347 0.4892,-3.4911 0.205,-1.0559 0.4434,-1.9894 0.6942,-2.7933 0.25,-0.8036 0.512,-1.4783 0.7736,-2.0497 0.2608,-0.5704 0.5204,-1.0369 0.7696,-1.4227 0.4102,-0.6183 0.7625,-1.0704 1.3867,-1.5557 0.953,-0.6729 1.9775,-0.9561 2.7363,-0.2568 0.1465,0.1171 0.3243,0.2744 0.6945,0.743 0.3699,0.4688 0.9334,1.2489 1.3416,1.7665 0.9162,1.1398 1.3224,1.3791 1.9199,1.6985 1.2677,0.5389 2.0441,0.3787 3.333,-1.133 1.836,-2.5438 2.1436,-5.3183 0.6718,-8.3106 z"
           style="fill:#1b1918;fill-rule:evenodd"
           id="path70"
           inkscape:connector-curvature="0" />
        <path
           d="m 216.735,652.602 c -1.9834,-1.5508 -4.0745,-1.2716 -5.9323,-0.3877 -0.527,0.2576 -1.0973,0.6026 -1.7677,1.1063 -0.6698,0.5032 -1.44,1.1662 -2.4321,2.2051 -0.9927,1.0392 -2.2077,2.4551 -3.3469,3.9268 v -3.0557 c 0,-0.6287 -0.021,-1.2597 -0.0609,-1.6756 -0.1191,-0.8974 -0.182,-1.1455 -0.6826,-1.6514 -0.3629,-0.2852 -0.6988,-0.3311 -1.0894,-0.3391 -0.1338,0.004 -0.2653,0.0315 -0.5485,0.1457 -0.5907,0.2061 -2.2034,1.1407 -3.6204,2.1787 -0.7722,0.5624 -1.4683,1.1348 -2.0109,1.622 -0.542,0.4873 -0.9292,0.8887 -1.2231,1.2238 -0.7631,0.8475 -1.1963,1.7214 -1.1523,2.203 0.001,0.2929 0.0518,0.667 0.1978,0.9737 0.0516,0.2909 0.7764,0.8643 1.3768,1.3992 1.2691,1.2884 1.3898,2.2062 1.6866,3.3234 0.3178,1.502 0.3975,2.9355 0.4048,4.6513 -0.01,8.246 0.0326,16.3888 -0.0292,24.7383 -0.1012,1.1194 -0.2511,2.4893 -1.4244,3.2726 -0.1791,0.1638 -0.9468,0.4082 -1.6597,0.6434 -0.5955,0.2129 -0.7772,0.4629 -0.9354,0.7393 -0.1973,0.4853 -0.5573,1.4814 0.167,2.086 0.1899,0.1035 0.3035,0.127 0.532,0.1766 0.1471,0.0303 0.3413,0.0627 0.9074,0.0859 0.5664,0.0235 1.5049,0.0315 2.4423,0.0315 h 7.9444 c 0.9882,0 1.978,-0.0136 2.5909,-0.0479 1.1415,-0.0839 1.2231,-0.1386 1.7319,-0.4094 0.6543,-0.5408 0.6636,-1.1267 0.4584,-1.8093 -0.1134,-0.2112 -0.2319,-0.3526 -0.4955,-0.5752 -0.1633,-0.1357 -0.392,-0.3047 -0.9147,-0.6066 -0.5225,-0.3016 -1.3383,-0.7361 -1.8658,-1.0488 -0.8289,-0.4989 -1.0151,-0.7021 -1.4119,-1.1083 -0.5338,-0.6047 -0.7002,-1.1611 -0.7047,-1.7266 v -19.5537 c 0,-1.6123 0.0654,-3.2247 0.1856,-4.6366 0.1202,-1.4122 0.294,-2.6241 0.4967,-3.6672 0.2026,-1.042 0.4345,-1.9151 0.6786,-2.6552 0.244,-0.7401 0.5009,-1.3476 0.7616,-1.8604 0.2608,-0.5128 0.5256,-0.9298 0.7881,-1.2753 1.4513,-1.7501 2.876,-2.3213 4.2911,-1.3428 0.102,0.0927 0.2109,0.2089 0.3413,0.3719 0.1304,0.1642 0.2829,0.3762 0.5459,0.8663 0.2628,0.4901 0.6361,1.2589 0.9094,1.7629 0.4314,0.7852 0.6103,0.9853 0.9847,1.3708 1.359,1.0998 2.4358,0.9573 3.879,-0.7948 1.559,-2.41 1.8484,-5.171 0.9082,-8.0791 -0.3932,-0.9864 -0.7634,-1.8048 -1.9021,-2.7978 z"
           style="fill:#1b1918;fill-rule:evenodd"
           id="path72"
           inkscape:connector-curvature="0" />
        <path
           d="m 104.0377,694.7759 c -0.3169,0.1259 -0.2968,0.1004 -0.6037,0.4062 -0.2033,0.2149 -0.5114,0.5868 -0.779,0.8907 -1.4967,1.7333 -2.5912,1.8133 -3.6865,1.6599 -1.0607,-0.2644 -3.2652,-2.7411 -3.687,-4.5751 -0.1494,-0.5264 -0.2168,-0.9941 -0.2171,-1.463 0.0051,-10.6659 -0.0167,-21.3086 0.0156,-31.9977 -0.0017,-0.3714 0.4683,-0.8048 0.7889,-0.8586 0.2528,-0.1026 0.9467,-0.1435 1.6395,-0.1398 1.2784,0.005 2.5583,-0.0351 3.3922,-0.0955 0.8334,-0.0607 1.2212,-0.1406 1.5265,-0.2157 0.7177,-0.1925 1.5707,-0.423 1.7807,-1.2804 0.2203,-0.5891 -0.4946,-1.7442 -1.5395,-1.9024 -0.4113,-0.1122 -0.9555,-0.1717 -1.4933,-0.1717 -0.2576,-0.007 -0.5156,0.0136 -0.9981,0.1139 -0.4818,0.1018 -1.1882,0.2823 -1.6701,0.383 -1.048,0.1649 -1.4256,0.3143 -2.1042,-0.4913 -0.4399,-0.6874 -0.4858,-1.0409 -0.6576,-1.7937 -0.0842,-0.415 -0.1729,-0.9669 -0.2549,-2.177 -0.0822,-1.2099 -0.1573,-3.0799 -0.2395,-4.29 -0.0825,-1.211 -0.1723,-1.7617 -0.2562,-2.1776 -0.2277,-0.9836 -0.3399,-1.6259 -1.0738,-2.2033 -0.4853,-0.2557 -1.08,-0.4167 -1.5718,0.2891 -0.1588,0.1074 -0.4907,1.4972 -0.8274,2.6612 -0.633,2.1143 -1.4225,3.6688 -2.5677,5.4082 -0.5332,0.8515 -1.188,1.6818 -2.0857,2.4766 -0.521,0.5321 -1.8252,1.3056 -3.0254,1.9531 -0.5973,0.3299 -1.052,0.585 -1.3391,0.7784 -0.716,0.5184 -0.7347,0.7772 -0.8444,1.1375 -0.1749,0.4385 0.1853,1.209 0.6414,1.3048 0.1035,0.0451 0.2305,0.0879 0.4043,0.1358 0.1734,0.0476 0.394,0.0995 0.9394,0.1414 0.5456,0.0411 1.4167,0.0715 2.0562,0.1106 0.9709,0.0643 1.4111,0.1063 2.0072,0.2832 0.5851,0.1142 1.3366,0.8016 1.2461,1.4558 l -0.6103,31.1621 c -0.0252,1.2773 0.0899,2.5566 0.256,3.6437 0.1658,1.0879 0.4037,1.9834 0.684,2.7479 0.2803,0.7656 0.6029,1.4015 0.9609,1.9483 2.1793,2.9942 4.1933,3.1456 6.653,3.2706 0.7236,-0.08 1.4394,-0.2294 2.186,-0.4629 0.7461,-0.2333 1.5234,-0.5508 2.1615,-0.8652 0.6383,-0.3135 1.1378,-0.623 1.5499,-0.917 0.6738,-0.4872 1.1679,-0.9249 1.6889,-1.6163 0.7475,-1.0068 0.9766,-2.0517 0.9698,-2.9032 0.002,-0.2792 -0.008,-0.6027 -0.0264,-0.8088 -0.0292,-0.8679 -0.682,-1.042 -1.3893,-0.9558 z"
           style="fill:#1b1918;fill-rule:evenodd"
           id="path74"
           inkscape:connector-curvature="0" />
        <path
           d="m 506.8956,698.47 c -0.5108,-0.3084 -1.3,-0.7373 -1.8108,-1.0448 -0.786,-0.4853 -0.957,-0.6619 -1.328,-1.086 -0.4034,-0.5165 -0.5088,-0.9618 -0.5156,-1.4462 v -65.9931 c 0,-0.3215 -0.007,-0.6446 -0.0255,-0.8516 -0.0105,-0.8183 -0.667,-1.002 -1.1971,-0.9805 -0.1182,0.002 -0.2364,0.0213 -0.4961,0.1044 -0.5802,0.1601 -2.177,0.9005 -3.6261,1.7237 -0.8263,0.4669 -1.6112,0.9598 -2.2266,1.3779 -0.6151,0.4181 -1.0604,0.7608 -1.3963,1.0401 -0.915,0.7704 -1.548,1.4765 -1.3966,2.0401 -0.0672,0.4529 1.5879,0.8467 2.3076,2.1024 0.6339,1.0939 0.7042,2.084 0.7237,3.2196 v 56.8273 c -0.002,0.7832 -0.2148,1.5899 -0.9873,2.2821 -0.1953,0.2572 -1.1962,0.7824 -2.0625,1.2198 -0.6485,0.3518 -0.9365,0.4572 -1.379,0.887 -0.6962,0.619 -0.5037,1.8201 0.3486,1.9442 0.1386,0.0496 0.3116,0.0995 0.5587,0.1554 0.2469,0.0544 0.5684,0.1151 1.2697,0.161 0.701,0.0448 1.783,0.0723 2.863,0.0723 h 6.7218 c 1.2568,0 2.5146,-0.008 3.2638,-0.0332 1.1299,-0.0431 1.1659,-0.0862 1.5729,-0.1837 1.2005,-0.4745 0.7404,-1.9961 -0.2625,-2.8788 -0.1788,-0.1622 -0.409,-0.3507 -0.9198,-0.6594 z"
           style="fill:#1b1918;fill-rule:evenodd"
           id="path76"
           inkscape:connector-curvature="0" />
        <path
           d="m 235.6628,699.2476 c -0.3217,-0.2365 -0.8223,-0.5587 -1.3657,-0.9054 -0.544,-0.3467 -1.1305,-0.7178 -1.5112,-0.9913 -0.8722,-0.6534 -1.0202,-0.957 -1.2702,-1.4051 -0.1752,-0.3643 -0.2409,-0.6993 -0.2429,-1.0528 v -35.4405 c 0,-1.4598 -0.0128,-2.9208 -0.0508,-3.8058 -0.064,-1.3532 -0.1329,-1.449 -0.2783,-1.9666 -0.167,-0.7912 -1.2107,-1.09 -1.7915,-0.8819 -0.127,0.0479 -0.3013,0.1278 -0.6202,0.3271 -0.6486,0.379 -2.2011,1.6152 -3.5635,2.9288 -0.7188,0.6894 -1.3561,1.3671 -1.828,1.9102 -0.4728,0.5429 -0.7804,0.9511 -0.9981,1.2686 -0.8062,1.1395 -0.8331,1.8572 -0.2548,2.5117 0.5028,0.326 1.9975,1.4658 2.16,2.5419 0.4237,1.381 0.4918,2.7374 0.5034,4.331 -0.0102,8.8175 0.0332,17.5655 -0.0303,26.4532 -0.0564,1.1894 -0.601,2.7686 -1.7864,3.3956 -0.2288,0.1347 -0.5278,0.2804 -0.9187,0.4442 -0.3901,0.1653 -0.8711,0.3495 -1.1673,0.4913 -0.7458,0.4022 -0.7212,0.6015 -0.8692,0.8866 -0.1808,0.4374 -0.2491,1.5693 0.709,1.7099 0.1131,0.0323 0.252,0.0626 0.4507,0.0958 0.1981,0.0332 0.4564,0.0695 1.1704,0.0958 0.7138,0.0252 1.8842,0.0352 3.0532,0.0352 h 7.9433 c 0.7285,0 1.4575,-0.0117 1.9145,-0.0391 0.9303,-0.082 1.0446,-0.0995 1.4947,-0.4462 0.4785,-0.6115 0.2772,-1.3567 -0.2735,-1.9746 -0.1146,-0.1318 -0.2571,-0.2812 -0.5786,-0.5176 z"
           style="fill:#1b1918;fill-rule:evenodd"
           id="path78"
           inkscape:connector-curvature="0" />
      </g>
      <path
         d="m 227.717,635.0023 c -0.7588,0.0196 -1.5341,0.337 -2.3632,1.4482 -0.5831,0.8116 -0.9562,1.8204 -1.143,2.8545 -0.2282,1.5469 -0.3957,3.2462 0.7118,4.8067 1.4253,1.5577 2.6524,1.4942 4.5176,0.9825 0.5604,-0.214 1.1083,-0.7685 1.347,-1.2716 0.6554,-1.3828 0.7722,-3.2032 0.4028,-5.243 -0.1284,-0.593 -0.3163,-1.1123 -0.5491,-1.5587 -0.8566,-1.5566 -1.8926,-1.9863 -2.9239,-2.0186 z"
         style="fill:#1b1918;fill-rule:evenodd"
         id="path81"
         inkscape:connector-curvature="0" />
    </g>
    <g
       id="Layer1003">
      <g
         id="Layer1004">
        <g
           id="Layer1005">
          <g
             id="Layer1006">
            <path
               d="m 101.4568,325.4289 c 0.1392,-0.2202 0.2806,-0.439 0.4243,-0.6582 23.1064,-35.5841 59.5528,-56.4117 93.8299,-56.4117 34.8965,0 56.8375,19.1387 85.6885,19.1387 27.9871,0 45.042,-19.1673 85.3926,-19.1673 30.4911,0 62.8047,16.6028 85.8387,45.3186 -6.3711,3.4914 -12.1141,7.4529 -17.2491,11.8009 z"
               style="fill:#73b628;fill-rule:evenodd"
               id="path84"
               inkscape:connector-curvature="0" />
            <g
               id="Layer1007">
              <path
                 d="m 336.1808,236.2677 c 14.6531,-18.8166 25.7918,-45.3872 21.7527,-72.5468 -23.9422,1.6475 -51.9531,16.8888 -68.3084,36.7481 -14.8462,18.0292 -27.1035,44.7741 -22.3279,70.7635 26.1405,0.8067 53.1822,-14.8071 68.8836,-34.9648 z"
                 style="fill:#73b628;fill-rule:evenodd"
                 id="path86"
                 inkscape:connector-curvature="0" />
            </g>
          </g>
        </g>
        <g
           id="Layer1008">
          <g
             id="Layer1009">
            <path
               d="m 101.4568,325.4289 c -9.8555,15.4489 -16.1425,35.0113 -18.5939,57.0229 l 320.2983,-0.005 c 3.4704,-21.2545 13.9989,-41.5568 32.2205,-56.9971 z"
               style="fill:#ffd700;fill-rule:evenodd"
               id="path91"
               inkscape:connector-curvature="0" />
          </g>
        </g>
        <g
           id="Layer1010">
          <g
             id="Layer1011">
            <path
               d="m 84.5294,439.4937 c -3.1308,-20.0214 -3.6405,-39.3239 -1.6665,-57.0419 l 320.2983,-0.005 c -3.132,19.2041 -0.5032,39.1887 7.4228,57.0591 z"
               style="fill:#f1830e;fill-rule:evenodd"
               id="path95"
               inkscape:connector-curvature="0" />
          </g>
        </g>
        <g
           id="Layer1012">
          <g
             id="Layer1013">
            <path
               d="M 100.1891,496.5248 C 92.6257,477.3617 87.4426,458.1176 84.5294,439.4937 l 326.0546,0.0124 c 10.0967,22.762 28.7773,42.0968 55.0771,52.0342 -0.7832,1.7385 -1.5332,3.4036 -2.2637,5.0068 z"
               style="fill:#e21f20;fill-rule:evenodd"
               id="path99"
               inkscape:connector-curvature="0" />
          </g>
        </g>
        <g
           id="Layer1014">
          <g
             id="Layer1015">
            <path
               d="m 463.3974,496.5471 c -9.0272,19.8616 -14.2645,30.172 -26.7628,49.1956 -1.6786,2.5554 -3.416,5.1679 -5.2197,7.8083 l -300.9654,0.0304 c -0.9643,-1.4403 -1.917,-2.8761 -2.8522,-4.2968 -11.2615,-17.1425 -20.3666,-34.918 -27.4082,-52.7598 z"
               style="fill:#b11d81;fill-rule:evenodd"
               id="path103"
               inkscape:connector-curvature="0" />
          </g>
        </g>
        <g
           id="Layer1016">
          <path
             d="m 431.4149,553.551 c -18.4158,26.9776 -43.1308,56.6623 -73.1231,56.9387 -29.2646,0.2696 -36.7764,-19.0448 -76.4776,-18.8271 -39.7057,0.2185 -47.9962,19.1678 -77.2613,18.8983 -31.2889,-0.29 -55.5843,-29.45 -74.1034,-56.9795 z"
             style="fill:#009adb;fill-rule:evenodd"
             id="path107"
             inkscape:connector-curvature="0" />
        </g>
      </g>
      <g
         id="Layer1017">
        <g
           id="Layer1018">
          <g
             id="Layer1019">
            <g
               id="Layer1020">
              <g
                 id="Layer1021">
                <g
                   id="Layer1022">
                  <g
                     id="Layer1023">
                    <path
                       d="m 466.5849,611.0269 c 8.4561,0 15.3125,-6.8565 15.3125,-15.3088 0,-8.4569 -6.8564,-15.3114 -15.3125,-15.3114 -8.4532,0 -15.3056,6.8545 -15.3056,15.3114 0,8.4523 6.8524,15.3088 15.3056,15.3088 z"
                       style="fill:none;stroke:#000000;stroke-width:2.02900004;stroke-linecap:butt;stroke-linejoin:miter;stroke-dasharray:none"
                       id="path111"
                       inkscape:connector-curvature="0" />
                  </g>
                  <g
                     id="Layer1024">
                    <path
                       d="m 462.2315,605.0208 v -17.1014 h 6.8533"
                       style="fill:none;stroke:#000000;stroke-width:2.02900004;stroke-linecap:butt;stroke-linejoin:miter;stroke-dasharray:none"
                       id="path114"
                       inkscape:connector-curvature="0" />
                    <path
                       d="m 473.2206,604.8315 -4.0751,-8.6417"
                       style="fill:none;stroke:#000000;stroke-width:2.02900004;stroke-linecap:butt;stroke-linejoin:miter;stroke-dasharray:none"
                       id="path116"
                       inkscape:connector-curvature="0" />
                    <path
                       d="m 462.2655,596.0364 h 6.8496"
                       style="fill:none;stroke:#000000;stroke-width:2.02900004;stroke-linecap:butt;stroke-linejoin:miter;stroke-dasharray:none"
                       id="path118"
                       inkscape:connector-curvature="0" />
                    <path
                       d="m 469.1055,596.0112 c 1.7079,0 3.4248,-1.7989 3.4248,-4.0215 0,-2.3624 -1.7912,-4.0703 -3.4455,-4.0703"
                       style="fill:none;stroke:#000000;stroke-width:2.02900004;stroke-linecap:butt;stroke-linejoin:miter;stroke-dasharray:none"
                       id="path120"
                       inkscape:connector-curvature="0" />
                  </g>
                </g>
              </g>
            </g>
          </g>
        </g>
      </g>
    </g>
  </g>
</svg>
